<svg width="1792" height="1024" viewBox="0 0 1792 1024" fill="none" xmlns="http://www.w3.org/2000/svg">
<path d="M173.333 196.533C173.333 197.733 176.133 198.533 182.8 199.067C206.666 201.067 218.8 214.933 223.2 245.333C226.4 268.133 226.533 274.133 226.666 396.267V513.333H262.666H298.666L298.933 480.267C299.066 462.133 299.066 413.067 298.8 371.333C298.4 287.067 299.733 250.667 304 234C308.266 217.467 315.2 207.733 326 203.333C331.6 200.933 336 197.733 336 195.733C336 195.2 299.466 194.667 254.666 194.667C187.066 194.667 173.333 194.933 173.333 196.533Z" fill="white"/>
<path d="M412 195.467C412 198.133 414.4 199.6 422.533 201.867C466.133 213.733 497.067 248.8 508.133 298.933C513.733 324.667 514 365.333 508.533 392C502.133 423.2 488.533 447.733 468 464.8C458.667 472.4 436.4 483.333 426 485.333C412.667 487.733 412 488 412 489.867C412 491.867 427.067 494.133 430.933 492.667C434.667 491.2 457.6 496 468.933 500.667C499.733 513.2 526.8 540.8 540 572.933C546.8 590 554.4 625.333 551.2 625.333C548.133 625.2 546.267 622.533 545.733 616.8C544.933 610 543.467 608.267 540.667 610.667C539.2 611.867 538.8 611.333 538.4 607.733C538.133 604.933 537.333 603.333 536 603.333C534.4 603.333 534 605.6 534 615.6C534 628.933 535.867 632 538.667 623.2L540.267 618.533L542.4 622.933C544.267 626.4 545.6 627.467 549.2 627.733L553.733 628.133L552.933 649.733C551.6 689.2 543.2 717.867 526 742C519.333 751.333 504.8 765.6 495.6 771.867C485.2 778.933 467.733 786.533 454.8 789.467C445.2 791.733 442.667 792.8 442.667 794.667C442.667 797.2 448 797.2 476 794.533C504.533 791.867 540.933 780.933 563.6 768.533C582 758.4 601.733 741.067 611.733 726.4C638.8 686.667 643.467 624.933 622.8 580.667C606.133 545.067 571.733 516.4 527.2 500.933C512 495.6 492 491.2 477.333 490C471.867 489.467 466.4 488.8 465.333 488.4C464.267 488 472.933 484.533 484.667 480.8C519.333 469.467 540 457.467 558.8 437.6C571.867 423.867 580 410.4 586.133 392.267C590.8 378.533 594.667 356.133 594.667 342.933C594.667 325.467 589.867 302.133 582.667 284.933C561.2 233.2 501.867 198.133 431.067 195.067C420.133 194.667 412 194.8 412 195.467Z" fill="white"/>
<path d="M703.6 199.6C700 208 662.133 304.533 654.266 325.333C650.266 336 640.533 361.2 632.666 381.333C624.933 401.467 614.4 428.8 609.333 442C604.4 455.2 599.6 467.6 598.8 469.6C597.733 472.533 597.733 473.333 599.066 473.333C600.133 473.333 604.133 464.667 608.666 452.933C612.933 441.867 624.133 412.533 633.6 388C643.066 363.467 655.333 331.333 660.933 316.667C666.533 302 671.466 289.6 672 288.933C672.4 288.4 674.8 293.2 677.333 299.6C691.6 337.467 712.533 392.267 733.333 446.667C746.4 480.8 762.133 522.133 768.4 538.667L779.733 568.667L818.533 569.067L857.333 569.333L854.533 562.4C851.733 555.467 836.133 515.2 819.333 472C814.666 459.867 794.266 406.8 774 354C707.066 179.2 713.333 194.667 709.2 194.667C706.4 194.667 705.333 195.733 703.6 199.6Z" fill="white"/>
<path d="M826.933 196.267C827.333 197.333 831.199 198.4 836.933 198.8C860.533 200.933 872.533 213.467 878.133 241.333C880.133 251.467 880.533 266.933 880.933 382.933L881.466 513.333H917.999H954.533L955.066 382.267C955.599 256.267 955.599 250.933 958.266 239.333C959.733 232.667 962.533 224.133 964.399 220.4C968.399 212.667 978.399 203.2 983.999 202C986.133 201.6 988.799 199.733 989.866 197.867L991.999 194.667H909.199C843.599 194.667 826.533 195.067 826.933 196.267Z" fill="white"/>
<path d="M1062.67 195.2C1062.67 197.867 1065.73 201.333 1068 201.333C1073.47 201.333 1091.87 208.267 1101.73 214C1126.67 228.667 1146.8 255.6 1155.87 286.267C1161.73 306.4 1163.2 318.267 1163.2 346C1163.2 390.267 1156.13 418.267 1138.67 444C1124.27 465.067 1096 483.6 1074.13 486.133C1066.4 487.067 1061.2 489.6 1063.07 491.6C1063.73 492.133 1071.47 492.8 1080.4 492.933C1100.13 493.067 1112.53 496.133 1130.27 504.667C1151.07 514.8 1168.53 530.8 1181.73 551.6L1186.93 560H1224.8C1250 560 1262.67 559.6 1262.67 558.667C1262.67 556 1240 533.733 1229.6 526.267C1214.53 515.467 1196.53 506.267 1177.87 500.133C1161.2 494.533 1135.2 489.333 1124 489.333C1120.4 489.333 1117.2 488.8 1116.8 488.267C1116.4 487.6 1122.8 485.2 1131.07 482.8C1194 464.667 1230.93 429.6 1242.27 377.333C1246 360.133 1245.6 323.467 1241.6 307.6C1235.2 281.867 1222.67 260 1204.4 242.533C1181.47 220.8 1152.53 206.8 1113.33 198.667C1099.47 195.867 1062.67 193.333 1062.67 195.2Z" fill="white"/>
<path d="M1354.53 198.267C1353.73 200.4 1351.6 205.867 1349.73 210.667C1348 215.467 1338 240.933 1327.73 267.333C1290.27 363.733 1277.87 396 1262 438.667C1255.87 455.2 1250.4 469.733 1250 470.933C1249.33 472.533 1249.73 473.333 1250.93 473.333C1252 473.333 1253.6 471.067 1254.53 468.267C1265.07 438.933 1321.87 289.733 1323.07 288.4C1323.47 288.133 1326.53 295.6 1330 304.933C1336.93 324 1379.07 435.333 1382 442.667C1383.07 445.2 1390.4 464.4 1398.53 485.333C1406.53 506.267 1415.6 529.733 1418.67 537.6L1424.13 552H1462.13C1482.93 552 1500 551.733 1500 551.333C1500 550.267 1479.87 497.867 1455.73 436C1430.8 372 1385.6 254.4 1372.93 220.4C1363.6 195.467 1363.2 194.667 1359.6 194.667C1356.8 194.667 1355.6 195.6 1354.53 198.267Z" fill="white"/>
<path d="M679.333 555.467C672.4 559.067 668.533 563.733 662.933 575.733C650.933 601.067 650.666 628.133 662.133 637.2C670.8 644 681.333 637.333 694.133 616.533C695.466 614.4 695.866 615.333 696.666 622.4C697.733 631.067 698.533 632.533 701.6 631.333C702.933 630.8 703.333 626.267 703.466 612.267C703.6 602.267 703.733 588.533 703.866 582C704.266 568.133 702.4 562.267 696 556.8C691.2 552.8 685.333 552.267 679.333 555.467ZM691.733 560.667C697.6 565.6 699.333 574 697.333 589.333C695.733 603.467 691.866 613.733 684.133 625.2C677.333 635.067 672.133 638.267 666.4 635.867C650.4 629.2 655.733 582.267 674.933 562.667C681.066 556.267 685.866 555.733 691.733 560.667Z" fill="white"/>
<path d="M1069.47 554.533C1066.8 556.267 1067.87 620.267 1070.67 626C1073.07 630.8 1078.27 632.133 1080.93 628.533C1083.6 624.8 1082.93 623.733 1079.47 626C1074.93 629.067 1073.73 626.667 1071.87 611.467C1070.53 601.333 1070.53 593.733 1071.87 577.067C1072.67 565.2 1072.93 555.067 1072.4 554.533C1071.73 553.867 1070.53 554 1069.47 554.533Z" fill="white"/>
<path d="M1303.73 556C1297.47 559.333 1293.2 564.933 1287.2 577.867C1276.13 601.867 1276 627.467 1286.8 636.533C1296.13 644.4 1307.73 638 1319.07 618.667L1322.67 612.667L1322.8 618.667C1322.93 626.667 1324.4 631.333 1326.53 631.333C1327.87 631.333 1328.4 626.667 1328.93 611.333C1330.27 572.4 1330.13 569.2 1326.93 563.067C1322 553.6 1313.33 550.933 1303.73 556ZM1316.67 560.267C1321.73 564.267 1324 570.4 1324 580.4C1324 597.333 1318 616 1308.27 628.667C1302.27 636.533 1298 638.533 1292 636C1275.33 629.067 1280.53 583.6 1300.4 562.933C1306.67 556.533 1310.93 555.733 1316.67 560.267Z" fill="white"/>
<path d="M1405.2 556.933C1404.4 558.933 1403.47 569.333 1403.2 580C1402.13 609.467 1402.93 607.467 1392.27 608.533C1374.67 610.267 1376.67 611.333 1377.07 600.667C1377.33 595.467 1377.87 590.267 1378.13 588.933C1378.67 587.333 1378.13 586.667 1376.13 586.667C1373.47 586.667 1373.33 587.467 1373.33 598C1373.33 609.2 1372.53 611.2 1369.47 607.467C1368.13 605.867 1366.8 606 1360.67 608.133C1351.47 611.333 1344.53 611.333 1338.4 608.133C1335.87 606.667 1333.2 605.867 1332.8 606.267C1331.47 607.6 1331.87 613.067 1333.33 614C1334.13 614.4 1334.67 617.467 1334.67 620.667C1334.67 630.133 1338.13 630 1339.2 620.533C1339.47 618.4 1339.73 616.267 1339.87 615.6C1339.87 615.067 1341.6 614.667 1343.47 614.667C1345.33 614.667 1350.8 613.6 1355.47 612.4C1366 609.6 1367.6 610.267 1371.6 620.133C1375.47 629.733 1378.8 630.667 1377.2 621.733C1376.53 618.267 1376.27 614.667 1376.53 613.867C1376.8 613.067 1381.2 612 1386.27 611.467C1391.2 610.933 1396.67 610.267 1398.4 609.733C1401.2 609.067 1401.33 609.333 1401.33 617.733C1401.33 622.533 1400.93 626.667 1400.4 626.933C1398.8 627.6 1400 672.267 1401.6 671.733C1402.27 671.467 1402.93 664.533 1402.93 655.333C1403.07 633.333 1403.73 628.267 1406.67 627.333C1408 626.933 1412.67 624.267 1417.2 621.333L1425.33 616V620.667C1425.33 623.867 1426.13 625.6 1428 626.667C1430.27 627.867 1431.33 627.467 1434.67 624.133C1437.07 621.867 1438.67 618.8 1438.67 616.8C1438.67 613.067 1441.87 610.667 1446.93 610.667C1448.67 610.533 1451.33 609.867 1452.93 608.933C1455.33 607.6 1453.87 607.333 1443.33 607.333H1430.8L1425.07 612.533C1421.87 615.333 1416 619.333 1412 621.467L1404.67 625.333L1404.27 621.067C1403.2 611.467 1406.8 567.6 1408.8 563.2C1410 560.8 1410.67 557.733 1410.4 556.533C1409.73 552.667 1406.8 552.933 1405.2 556.933ZM1434.4 616.267C1434.67 618 1433.87 620.267 1432.8 621.2C1431.07 622.667 1430.67 622.4 1429.87 619.467C1428.8 615.2 1430.13 611.6 1432.4 612.267C1433.2 612.667 1434.13 614.4 1434.4 616.267Z" fill="white"/>
<path d="M321.6 589.067C322 619.333 322.266 623.867 324.4 627.067C327.066 631.2 330.666 631.733 333.733 628.267C336.266 625.467 336.8 622.667 334.4 625.067C331.6 627.867 328 626.933 326.4 622.933C324.266 617.733 323.333 576.267 325.2 566.8C326.8 558.4 326.133 554.667 323.066 554.667C321.466 554.667 321.2 559.467 321.6 589.067Z" fill="white"/>
<path d="M1440 555.6C1434.93 556.533 1430.67 561.2 1430.67 565.6C1430.67 568.267 1432.4 571.333 1436.53 575.733C1446.93 586.8 1463.07 594.933 1487.33 601.333L1500.67 604.8V612.133C1500.67 617.067 1499.73 620.8 1498.13 623.2C1495.87 626.667 1495.6 626.8 1493.6 624.8C1491.2 622.4 1490.93 612.8 1493.2 610.133C1495.07 608 1493.87 606.8 1490.67 607.6C1487.07 608.533 1484.8 614.933 1486 620.933C1487.2 627.733 1488.8 629.333 1494 629.333C1500.53 629.333 1504.93 623.467 1506.13 613.333L1507.07 605.333L1515.2 605.2L1523.33 605.067L1514.8 603.467L1506.27 602L1503.87 593.733C1502.4 589.2 1499.33 582.933 1496.93 579.733C1491.07 572.133 1474.8 560.533 1466.27 558C1458.67 555.733 1445.33 554.533 1440 555.6ZM1459.07 559.333C1469.87 562.133 1476.67 566 1484.93 573.733C1491.73 580.133 1497.47 589.733 1499.33 597.867L1500.13 601.6L1493.87 600.667C1472.67 597.467 1440 579.333 1435.87 568.267C1432.13 558.667 1442 554.933 1459.07 559.333Z" fill="white"/>
<path d="M202.266 558.133C201.733 558.667 201.333 560.667 201.333 562.667C201.333 564.667 200.133 567.333 198.666 568.667C195.599 571.467 196.266 573.333 200.266 573.333C203.066 573.333 203.066 573.6 202.399 599.333C201.599 625.6 202.133 629.067 206.266 624.933C207.733 623.6 207.866 622.267 207.066 620.533C206.266 619.067 205.999 607.067 206.399 592.4L206.933 566.667L212.533 565.067C220.799 562.667 228.799 562.933 231.599 565.6C233.733 567.867 233.733 568.267 231.599 572.667C230.399 575.2 226.399 579.467 222.666 582.133C214.399 588.133 215.066 589.733 223.866 584.933C243.999 573.867 268.133 590.8 264.533 613.333C262.399 626.4 248.933 640.267 236.533 642.133C229.199 643.2 219.599 639.867 216.533 635.2C214.399 632 214.399 623.2 216.533 618.267C217.199 617.067 217.066 616 216.399 616C212.666 616 209.599 632.133 212.266 637.333C214.533 641.6 225.599 645.733 232.666 644.933C240.266 644.133 252.666 637.733 257.999 631.867C271.599 616.8 272.799 598.533 260.933 586.933C254.133 580.267 247.466 577.333 239.333 577.333C235.999 577.333 233.333 577.067 233.333 576.8C233.333 576.4 234.666 574 236.133 571.333C243.066 559.6 230.533 554.133 211.999 560.667C207.199 562.4 206.799 562.267 205.066 559.867C204.133 558.267 202.933 557.6 202.266 558.133Z" fill="white"/>
<path d="M948.666 558.8C948.133 559.467 948.133 561.067 948.533 562.4C949.066 563.867 948.266 566.133 946.666 568C944 571.067 943.066 574.133 945.066 572.8C945.6 572.533 946.933 572.667 948 573.333C949.466 574.267 949.866 579.467 949.6 600.667C949.466 624.4 949.6 626.8 951.6 626.4C953.6 626 953.733 623.067 953.466 596.933L953.066 568L958.266 565.867C963.2 563.733 975.866 562.933 978.666 564.667C983.066 567.467 978 576.4 968 583.333C960.933 588.267 963.333 589.333 971.066 584.8C978 580.667 988.4 580.133 995.466 583.467C1001.6 586.4 1008.8 594.8 1010.53 600.933C1012.93 609.333 1012.27 615.067 1008 623.6C1000.13 639.333 983.733 646.4 969.866 640.133C961.866 636.533 959.6 629.333 963.333 619.6C963.866 618.4 963.733 617.333 962.933 617.333C961.066 617.333 958.666 624.8 958.666 630.933C958.666 637.467 962.8 641.867 970.8 644C981.466 646.933 995.066 642.4 1004.67 632.667C1012.8 624.533 1015.33 618.4 1015.33 606.533C1015.33 597.733 1014.8 595.733 1011.6 590.933C1006.53 583.067 996 577.333 987.066 577.333H980L982.666 572.933C986.133 567.467 986 563.733 982.533 560.533C979.066 557.467 968.933 557.467 960.133 560.533C953.066 563.067 953.333 563.067 953.333 560.8C953.333 558.533 949.733 556.933 948.666 558.8Z" fill="white"/>
<path d="M1084.8 600C1084.93 641.333 1086.13 652.533 1088.4 634.933C1089.47 627.067 1089.73 626.667 1092.4 627.6C1095.2 628.667 1104.67 628.667 1124.27 627.733C1130.67 627.467 1134.13 626.533 1136.93 624.533L1140.8 621.6L1144.4 624.8C1149.33 629.067 1156.27 628.933 1165.2 624.533C1168.93 622.533 1171.87 620.8 1171.47 620.4C1171.2 620.133 1168.53 621.067 1165.47 622.533C1158.13 626.4 1152.67 626.133 1148.4 621.867C1145.47 618.933 1145.2 617.733 1145.87 613.067C1146.53 609.067 1146.27 607.867 1145.07 608.4C1144.13 608.667 1142.27 608 1140.93 606.933C1136.13 602.667 1126.4 610.533 1124.4 620.4C1124 622.4 1123.2 624.267 1122.67 624.667C1120.93 625.733 1102.13 625.867 1099.07 624.8C1095.47 623.6 1095.2 621.733 1098.13 618.533C1099.6 616.933 1100 614.933 1099.47 612.667C1098.4 608.533 1095.2 607.067 1091.87 609.2C1089.47 610.667 1089.33 609.733 1089.33 587.067C1089.33 562.533 1088.8 557.333 1086.13 557.333C1085.07 557.333 1084.67 569.067 1084.8 600ZM1093.6 617.6C1090.4 620.8 1089.6 619.067 1092.13 614.4C1093.2 612.4 1094 612.133 1095.07 613.2C1096.13 614.267 1095.73 615.467 1093.6 617.6ZM1138.4 615.333C1138.67 616.933 1137.33 619.467 1135.47 621.2C1132.4 624 1132 624.133 1131.2 622.133C1130 618.933 1133.33 611.733 1135.87 612.267C1137.07 612.533 1138.13 613.867 1138.4 615.333Z" fill="white"/>
<path d="M748.933 586.133C748.399 586.667 747.999 592.133 747.999 598.4C747.999 608.533 747.733 609.467 745.733 608.533C742.666 607.2 738.933 607.467 727.999 609.333C719.199 610.933 715.999 610.267 710.266 606.4C708.399 604.933 707.733 605.067 706.666 606.667C705.999 607.733 705.733 609.6 706.266 610.667C706.666 611.733 707.333 615.333 707.599 618.667C708.399 627.467 708.933 628.667 711.333 626.667C712.533 625.733 713.333 622.8 713.333 619.867C713.333 615.333 713.733 614.667 716.399 614.667C717.999 614.667 723.599 613.733 728.933 612.667C734.133 611.6 739.333 611.067 740.399 611.467C742.399 612.133 744.133 615.067 747.333 622.933C748.399 625.733 749.733 628 750.399 628C750.933 627.867 751.199 624.4 751.066 620.133L750.666 612.4L757.733 611.6C761.466 611.067 766.933 610.4 769.733 609.867L774.666 608.933L773.866 613.2C772.666 618.8 775.466 624.933 779.866 626.4C784.133 627.867 791.599 625.733 797.466 621.467C801.866 618.267 805.066 618 808.533 620.667C811.866 623.2 810.399 624.667 804.533 624.667C799.333 624.667 798.399 626.933 802.933 628.267C808.399 629.733 821.866 629.333 828.666 627.467L835.333 625.6L824.933 625.467C817.466 625.333 814.666 624.933 814.799 623.6C815.333 619.733 814.399 618.533 809.999 616.4C805.733 614.4 805.466 614 807.466 611.867C810.933 608 809.066 606.4 804.399 609.333C801.333 611.067 799.999 612.933 799.999 615.2C799.999 617.733 798.666 619.067 794.266 621.2C791.066 622.8 787.466 624 786.266 624C782.399 624 778.666 619.067 778.666 614C778.666 609.867 778.266 609.333 773.866 608.533C771.333 608.133 765.733 608.4 761.733 609.2C748.933 611.733 749.999 614 752.399 588.8C752.666 586.133 750.533 584.533 748.933 586.133Z" fill="white"/>
<path d="M461.599 592.933C462.266 596.4 466.666 596.8 466.666 593.467C466.666 591.467 465.866 590.667 463.866 590.667C461.999 590.667 461.333 591.333 461.599 592.933Z" fill="white"/>
<path d="M778.933 592.933C779.6 596.4 784 596.8 784 593.467C784 591.467 783.2 590.667 781.2 590.667C779.333 590.667 778.667 591.333 778.933 592.933Z" fill="white"/>
<path d="M886.533 602.933C886.399 603.067 886.266 609.067 886.133 616.133C885.999 625.467 886.266 628.933 887.466 628.4C888.266 628.133 889.599 625.867 890.266 623.6L891.599 619.333L893.066 623.067C895.999 630.133 902.399 629.467 911.466 621.067C914.666 618.133 917.066 615.333 916.666 614.933C916.399 614.533 913.333 616.8 909.999 619.867C901.466 627.733 898.399 627.067 896.666 616.4C895.733 610.533 894.133 608.267 892.666 610.667C890.933 613.467 889.199 611.867 889.599 607.733C889.866 605.333 889.333 603.333 888.399 603.067C887.466 602.667 886.533 602.667 886.533 602.933Z" fill="white"/>
<path d="M1175.87 603.6C1175.73 604.267 1175.6 609.867 1175.47 616.267C1175.33 628.8 1176.8 631.2 1179.87 623.6L1181.6 619.333L1182.93 623.067C1185.47 630.267 1193.6 628.8 1202.53 619.467C1208.8 613.067 1206.53 613.333 1199.07 620C1195.73 622.933 1192.27 625.333 1191.47 625.333C1188.8 625.333 1186.67 622.267 1186.67 618.267C1186.67 616.267 1186 613.333 1185.2 611.867C1183.87 609.2 1183.73 609.2 1181.2 611.467C1178.8 613.733 1178.67 613.6 1178.67 608.267C1178.67 605.2 1178.13 602.667 1177.33 602.667C1176.67 602.667 1175.87 603.067 1175.87 603.6Z" fill="white"/>
<path d="M374.667 609.067C372.667 611.2 370.133 615.467 369.2 618.667C367.6 623.733 367.733 624.533 369.867 626C372.533 628 376.667 627.2 381.733 623.733C383.733 622.267 385.333 621.6 385.333 622.267C385.333 624.4 393.067 628 397.6 628C400 627.867 405.333 626.133 409.333 624C417.733 619.6 417.733 618.8 409.2 622.667C397.333 628 390 624.667 390 614C390 608.933 389.6 608 387.733 608.4C386.533 608.8 385.2 608.267 384.8 607.2C383.6 604.133 378.667 605.067 374.667 609.067ZM382.4 615.6C382.667 617.333 381.733 619.2 379.733 620.533C375.733 623.333 374.667 623.2 374.667 619.867C374.667 612.933 381.467 609.067 382.4 615.6Z" fill="white"/>
<path d="M417.733 607.467C417.333 608.533 417.599 610.933 418.533 612.8C419.333 614.667 419.999 618.533 419.999 621.333C419.999 625.067 420.533 626.667 421.866 626.667C424.266 626.667 425.733 622.533 424.666 618.4C423.866 615.333 424.266 615.2 434.266 613.467C445.333 611.6 454.666 608.4 454.666 606.533C454.666 606 452.133 606.4 449.066 607.467C440.666 610.4 428.133 610.533 423.999 607.6C419.999 604.8 418.799 604.8 417.733 607.467Z" fill="white"/>
<path d="M489.466 609.2C487.466 611.333 485.066 615.6 483.999 618.667C482.266 623.867 482.266 624.4 484.666 626.133C487.466 628.267 491.066 627.6 496.133 624C499.466 621.6 499.733 621.6 502.266 624.267C506.799 628.8 514.666 628.933 523.199 624.533C527.333 622.533 530.666 620.4 530.666 619.867C530.666 619.467 527.866 620.4 524.399 622.133C514.533 627.2 508.133 626 505.599 618.933C504.933 616.8 504.666 613.467 505.066 611.333C505.599 608.267 505.333 607.733 503.599 608.4C502.533 608.8 500.799 608.267 499.999 607.2C497.466 604.267 493.333 604.933 489.466 609.2ZM497.199 613.867C498.266 615.2 497.999 616.4 495.866 619.2C492.133 624 488.799 623.867 489.999 619.067C491.599 612.533 494.399 610.533 497.199 613.867Z" fill="white"/>
<path d="M844.533 607.733C841.333 610.267 838.133 616 836.8 621.6C835.333 628.133 844.133 629.467 850.533 623.6C852.8 621.467 853.866 621.2 854.266 622.4C855.2 624.8 861.866 628 866.266 628C868.4 628 872.4 626.8 875.333 625.2C882.666 621.333 884.666 619.067 877.733 622.533C870.266 626.267 865.2 626.133 861.333 622C858.8 619.333 858.4 617.733 859.066 613.2C859.733 608.4 859.466 607.867 857.333 608.4C855.866 608.8 854.133 608.267 853.2 607.2C851.2 604.667 848 604.933 844.533 607.733ZM851.6 614.133C852.533 616.8 846 623.867 844.133 622C842.266 620.133 846 612 848.666 612C849.866 612 851.066 612.933 851.6 614.133Z" fill="white"/>
<path d="M1026.8 608.8C1022.53 612.4 1019.07 620.933 1020.4 624.533C1021.6 627.733 1029.2 627.2 1032.93 623.733L1036 620.933L1039.2 623.867C1044.27 628.667 1050.8 628.933 1059.33 624.667C1063.47 622.667 1066.53 620.8 1066.27 620.4C1065.87 620.133 1063.87 620.667 1061.73 621.733C1049.2 628 1039.07 622.667 1041.87 611.333C1042.53 608.667 1042.27 608 1040.13 608C1038.67 608 1037.07 607.333 1036.67 606.667C1035.2 604.267 1030.93 605.2 1026.8 608.8ZM1034.13 614C1035.2 616.533 1031.2 622.667 1028.67 622.667C1026.27 622.667 1026.13 620 1028.27 615.333C1029.87 611.6 1033.07 610.933 1034.13 614Z" fill="white"/>
<path d="M1482.67 606.8C1480.8 607.6 1475.6 607.867 1470.67 607.333C1462.53 606.667 1461.6 606.8 1458.93 609.733C1456.4 612.4 1455.87 614.267 1456.27 619.467C1456.67 625.2 1457.07 626 1459.73 626.4C1463.87 627.067 1467.6 623.467 1469.6 617.2C1470.8 613.067 1471.87 612 1475.2 611.333C1481.2 610.133 1486.67 607.867 1486.67 606.533C1486.67 605.867 1486.53 605.333 1486.4 605.467C1486.13 605.467 1484.53 606.133 1482.67 606.8ZM1465.33 616.533C1465.33 618.267 1464.4 620.4 1463.33 621.333C1461.73 622.667 1461.33 622.267 1460.53 619.467C1459.73 615.867 1462 611.467 1464.13 612.8C1464.8 613.2 1465.33 614.933 1465.33 616.533Z" fill="white"/>
<path d="M344.133 612.8C340.8 617.067 340.666 619.067 343.333 621.333C344.933 622.667 346.133 622.667 349.333 621.333C351.6 620.4 353.6 619.867 353.866 620.133C356.4 623.067 367.2 643.733 369.333 649.6C377.2 672.133 366.533 693.2 346.933 693.6C334.533 693.867 326 685.333 326.133 672.667C326.266 661.067 334.666 649.6 348.4 642.4C354.933 639.067 353.866 637.6 347.2 640.8C339.333 644.533 327.2 656.667 324.533 663.333C318.266 680 328.133 697.333 343.866 697.333C358.933 697.2 373.733 684.533 376.533 669.067C378 660.933 373.866 646.933 364.266 627.867C355.866 611.067 355.066 610 351.2 609.6C347.866 609.333 346.266 610 344.133 612.8ZM350.666 614.533C350.666 615.2 349.733 616.4 348.666 617.333C347.066 618.667 346.666 618.667 346.666 617.067C346.666 616 347.066 614.667 347.6 614.267C348.8 612.933 350.666 613.067 350.666 614.533Z" fill="white"/>
<path d="M457.333 611.333C455.333 613.867 456.533 620.8 459.6 624.267C462.267 627.333 469.333 627.333 475.467 624.533C481.067 621.867 482.933 619.467 477.867 621.333C467.6 625.333 461.333 622.4 461.333 613.733C461.333 608.933 460 608.133 457.333 611.333Z" fill="white"/>
<path d="M271.333 615.733C270.933 617.867 271.2 621.2 271.867 623.067C273.6 627.6 279.733 628 285.067 624L288.667 621.333L294.267 624C297.333 625.467 302.533 626.667 305.867 626.667C312 626.667 318.667 624.4 318.667 622.4C318.667 621.733 317.467 621.867 316.133 622.667C309.867 626 300.533 623.6 294.4 617.067L290.4 612.8L286.133 617.867C280.667 624.533 276.8 624.133 276.267 616.933C275.733 611.067 272.667 610.267 271.333 615.733Z" fill="white"/>
<path d="M226.266 692.933C225.333 742.667 224 754.533 218.266 767.067C211.333 782.133 199.733 790.133 182.533 791.6C176.133 792.133 173.333 792.933 173.333 794.133C173.333 795.733 187.866 796 259.466 796C327.2 796 345.466 795.6 345.066 794.4C344.666 793.467 342.4 792.133 339.866 791.6C317.466 785.867 307.2 774.267 302.8 749.867C300.4 736.533 298.666 706 298.666 675.6V646.667H262.933H227.066L226.266 692.933Z" fill="white"/>
<path d="M810.666 648.133C810.666 648.933 815.999 663.733 822.533 681.067C843.466 736.8 849.066 756.8 847.333 770C845.599 783.867 837.733 790.133 819.999 791.6C814.133 792.133 810.666 792.933 810.666 794C810.666 795.2 832.399 795.467 903.999 795.2C989.199 794.933 1010.53 794.133 989.866 791.867C977.466 790.4 961.199 781.467 949.333 769.333C933.066 752.8 924.799 737.6 897.999 674.267L886.266 646.667H848.533C821.866 646.667 810.666 647.067 810.666 648.133Z" fill="white"/>
<path d="M1206.13 660.8C1202.53 716.8 1178 758.267 1136 779.333C1123.87 785.467 1113.33 788.933 1102.93 790.533C1098.27 791.2 1096.53 792 1096.27 793.867C1095.73 796.267 1096.53 796.4 1114.13 795.6C1184.53 792.667 1243.33 764.133 1268.8 720.8C1278.27 704.933 1283.73 687.733 1287.2 664C1288.13 657.067 1289.2 650.4 1289.47 649.333C1289.87 647.6 1284.67 647.333 1248.53 646.933L1207.07 646.667L1206.13 660.8Z" fill="white"/>
<path d="M1460 647.333C1460 647.733 1465.47 662.933 1472.13 681.067C1499.2 754.133 1502.4 773.067 1490 784.8C1485.07 789.467 1476.8 792 1466.8 792C1461.73 792 1460 792.533 1460 793.867C1460 795.6 1472.93 795.733 1552.27 795.6C1618.27 795.467 1644.53 794.933 1644.93 793.867C1645.2 792.933 1642.4 792.133 1637.2 791.6C1619.2 790 1596.53 773.333 1582.27 751.333C1575.87 741.2 1561.6 713.333 1557.2 702.267C1555.73 698.4 1550.93 687.867 1546.67 678.667C1542.4 669.467 1537.87 658.533 1536.53 654.267L1534.13 646.667H1497.07C1476.67 646.667 1460 646.933 1460 647.333Z" fill="white"/>
</svg>
